<svg xmlns="http://www.w3.org/2000/svg" viewBox="0 0 110.84 110.84"><defs><style>.cls-1{fill:#262730;}</style></defs><title>Fichier 10</title><g id="Calque_2" data-name="Calque 2"><g id="Calque_5" data-name="Calque 5"><path class="cls-1" d="M107.73,12.83,98,3.11a10.63,10.63,0,0,0-15,0l-20,20.05a10.63,10.63,0,0,1-15,0l-20-20a10.63,10.63,0,0,0-15,0L3.11,12.83a10.63,10.63,0,0,0,0,15l20.05,20a10.64,10.64,0,0,1,0,15l-20,20a10.63,10.63,0,0,0,0,15l9.72,9.72a10.63,10.63,0,0,0,15,0l20-20a10.63,10.63,0,0,1,15,0l20,20a10.63,10.63,0,0,0,15,0L107.73,98a10.63,10.63,0,0,0,0-15l-20-20a10.62,10.62,0,0,1,0-15l20-20A10.63,10.63,0,0,0,107.73,12.83Z"/></g></g></svg>