<svg xmlns="http://www.w3.org/2000/svg" viewBox="0 0 252.46 210.97"><defs><style>.a{fill:#96c777;}.b{fill:#262730;}.c{fill:none;stroke:#262730;}.c,.d{stroke-miterlimit:10;stroke-width:6px;}.d,.e{fill:#e75b7c;}.d{stroke:#cd5376;}</style></defs><title>victory</title><path class="a" d="M35.75,161.82c0,49.5,42.88,57,101.2,57s110-7.47,110-57-47.27-89.61-105.6-89.61S35.75,112.33,35.75,161.82Z" transform="translate(-10.38 -7.81)"/><circle class="b" cx="108.51" cy="131.33" r="6.36"/><circle class="b" cx="61.51" cy="126.33" r="6.36"/><path class="c" d="M106.4,148.5c-4.05,2.79-17.35,6.11-23.15-5" transform="translate(-10.38 -7.81)"/><path class="d" d="M72.3,104.78l3,.92a139.53,139.53,0,0,0,71.7,2.68l3.55-.8,7.77-30.26a5.3,5.3,0,0,0-8.28-4.57l-7.4,5a8,8,0,0,1-11.29-2.48L121.25,58.43a9.5,9.5,0,0,0-16-.45L94.63,73.62a8,8,0,0,1-11.29,1.93l-8.17-6a5.3,5.3,0,0,0-8.44,4.08Z" transform="translate(-10.38 -7.81)"/><polygon class="e" points="150.39 25.68 145.33 35.2 155.81 32.97 150.39 25.68"/><polygon class="e" points="234.56 27.21 223.16 32.79 234.56 38.19 234.56 27.21"/><polygon class="e" points="145.44 55.16 141.51 50.84 138.55 55.98 145.44 55.16"/><polygon class="e" points="204.49 51.61 203.81 44.58 197.44 47.43 204.49 51.61"/><polygon class="e" points="134.5 31.1 123.84 30.26 129.53 39.01 134.5 31.1"/><polygon class="e" points="205.68 26.9 196.25 18.4 195.49 31 205.68 26.9"/><polygon class="e" points="143.72 23.28 145.93 10.15 134.18 16.64 143.72 23.28"/><polygon class="e" points="124.12 81.84 120.19 77.52 117.23 82.66 124.12 81.84"/><polygon class="e" points="203.17 85.29 202.49 78.26 196.12 81.11 203.17 85.29"/><polygon class="e" points="213.36 68.58 203.93 60.08 203.17 72.67 213.36 68.58"/><polygon class="e" points="225.41 64.93 236.65 53.78 221.07 51.6 225.41 64.93"/><polygon class="e" points="110 22.17 104.94 31.68 115.42 29.46 110 22.17"/><polygon class="e" points="85.05 44.65 81.11 40.33 78.16 45.47 85.05 44.65"/><polygon class="e" points="164.09 48.09 163.41 41.07 157.04 43.92 164.09 48.09"/><polygon class="e" points="94.1 27.58 83.44 26.74 89.13 35.49 94.1 27.58"/><polygon class="e" points="103.33 19.77 105.53 6.64 93.78 13.13 103.33 19.77"/><polygon class="e" points="178.62 20.72 189.87 9.57 174.29 7.39 178.62 20.72"/><polygon class="e" points="189.92 52.77 178.52 58.36 189.92 63.76 189.92 52.77"/><polygon class="e" points="37.12 46.29 41.44 42.35 36.3 39.39 37.12 46.29"/><polygon class="e" points="54.19 56.34 55.03 45.68 46.28 51.37 54.19 56.34"/><polygon class="e" points="5.45 36.97 9.77 33.03 4.63 30.08 5.45 36.97"/><polygon class="e" points="0 125.01 7.03 124.33 4.18 117.96 0 125.01"/><polygon class="e" points="28.33 64.25 41.46 66.45 34.97 54.7 28.33 64.25"/><polygon class="e" points="63.12 31.84 53.6 26.79 55.83 37.26 63.12 31.84"/><polygon class="e" points="40.64 6.89 44.96 2.96 39.82 0 40.64 6.89"/><polygon class="e" points="37.19 85.94 44.22 85.26 41.37 78.89 37.19 85.94"/><polygon class="e" points="57.7 15.95 58.54 5.29 49.79 10.98 57.7 15.95"/><polygon class="e" points="65.52 25.17 78.65 27.38 72.16 15.63 65.52 25.17"/><polygon class="e" points="27.92 114.7 22.33 103.3 16.93 114.7 27.92 114.7"/><polygon class="e" points="3.51 84.62 10.54 83.94 7.69 77.57 3.51 84.62"/><polygon class="e" points="20.22 94.81 28.72 85.38 16.13 84.62 20.22 94.81"/><polygon class="e" points="184.22 49.93 178.91 35.2 175.72 41.17 184.22 49.93"/><polygon class="e" points="249.02 143.59 244.7 147.52 249.84 150.48 249.02 143.59"/><polygon class="e" points="252.46 64.55 245.44 65.23 248.29 71.6 252.46 64.55"/><polygon class="e" points="224.55 74.86 230.13 86.26 235.53 74.86 224.55 74.86"/><polygon class="e" points="248.95 104.94 241.92 105.62 244.77 111.99 248.95 104.94"/><polygon class="e" points="232.24 94.75 223.75 104.17 236.34 104.94 232.24 94.75"/><polygon class="e" points="12.67 65.23 16.99 61.3 11.85 58.34 12.67 65.23"/><polygon class="e" points="236.09 8.51 231.77 4.57 236.91 1.61 236.09 8.51"/><polygon class="e" points="239.54 87.55 232.51 86.87 235.36 80.5 239.54 87.55"/><polygon class="e" points="219.03 17.56 218.19 6.9 226.94 12.59 219.03 17.56"/></svg>