<svg xmlns="http://www.w3.org/2000/svg" viewBox="0 0 167.46 130.33"><defs><style>.a{fill:#e75b7c;}.b{fill:#e55e85;}.c{fill:#cc597b;}.d{fill:#96c777;}.e{fill:#82ad68;}.f{fill:#262730;}</style></defs><title>wagashi-10</title><polygon class="a" points="167.46 94.25 95.42 83 95.42 0 167.46 11.25 167.46 94.25"/><polygon class="b" points="167.46 11.25 95.42 0 0 36.07 72.04 47.33 167.46 11.25"/><polygon class="c" points="167.46 94.25 167.46 11.25 72.04 47.33 72.04 130.33 167.46 94.25"/><polygon class="a" points="72.04 130.33 0 119.07 0 36.07 72.04 47.33 72.04 130.33"/><path class="d" d="M195.05,192.79l-50.35,19s4.7-40.22,21.92-70.64a5.72,5.72,0,0,1,8.67-1.6C185.45,148.4,189.54,163.79,195.05,192.79Z" transform="translate(-42.56 -92.87)"/><polygon class="e" points="131.44 62.83 134.03 106.89 131.44 107.87 131.44 62.83"/><polygon class="e" points="133.56 98.83 138.19 90.28 133.74 101.82 133.56 98.83"/><polygon class="e" points="131.44 93.13 125.14 88.48 131.44 95.66 131.44 93.13"/><circle class="f" cx="50.28" cy="99.91" r="4.26"/><circle class="f" cx="15.8" cy="96.4" r="4.26"/><path class="f" d="M76.22,199.76a12.94,12.94,0,0,1-3.19-.35,11.12,11.12,0,0,1-7.38-5.81l3.54-1.89a7.2,7.2,0,0,0,4.78,3.8,11.09,11.09,0,0,0,7.83-1.28l2.31,3.29A15.13,15.13,0,0,1,76.22,199.76Z" transform="translate(-42.56 -92.87)"/></svg>