<svg xmlns="http://www.w3.org/2000/svg" viewBox="0 0 230.7 149.53"><defs><style>.a{fill:#fde5d5;stroke:#eed0c0;}.a,.b,.c{stroke-miterlimit:10;stroke-width:3px;}.b,.c{fill:#7d4e24;}.b{stroke:#ca9e67;}.c{stroke:#fde5d5;stroke-linecap:round;}.d{fill:#262730;}</style></defs><title>wagashi-8</title><line class="a" x1="202.04" y1="53.89" x2="222.2" y2="49.26"/><path class="a" d="M235,120.23a7,7,0,0,1-.77-13.78l20.16-4.64a7,7,0,1,1,3.14,13.64l-20.16,4.64A7.07,7.07,0,0,1,235,120.23Z" transform="translate(-33.73 -59.37)"/><circle class="a" cx="150.24" cy="65.76" r="64.26"/><circle class="a" cx="112.75" cy="73.15" r="64.26"/><circle class="a" cx="65.76" cy="83.77" r="64.26"/><path class="b" d="M245.23,112.2h0a2.39,2.39,0,0,0,.54-2.17,64.25,64.25,0,0,0-126.23,7.34,2.43,2.43,0,0,0,3.48,2.47c2.5-1.25,4.93-3.61,7.2-5.31,5.8-4.32,11.8-1,17.8,1.22s12.8,1.31,22.6-1.22,16.6-1.83,21.6,1.22,16,2.71,22-1.22,15.8-.67,17.6,0S240.63,117.2,245.23,112.2Z" transform="translate(-33.73 -59.37)"/><path class="c" d="M145.62,79.29s10.21-10.1,28.84-13.1" transform="translate(-33.73 -59.37)"/><path class="b" d="M207.6,119.58h0a2.38,2.38,0,0,0,.55-2.17,64.26,64.26,0,0,0-126.24,7.35,2.43,2.43,0,0,0,3.48,2.47c2.51-1.25,4.93-3.62,7.2-5.31,5.8-4.33,11.8-1,17.8,1.22s12.8,1.3,22.6-1.22,16.6-1.84,21.6,1.22,16,2.7,22-1.22,15.8-.68,17.6,0S203,124.58,207.6,119.58Z" transform="translate(-33.73 -59.37)"/><path class="c" d="M107.31,87.17s10.21-10.09,28.85-13.09" transform="translate(-33.73 -59.37)"/><path class="b" d="M161.4,130.2h0A2.38,2.38,0,0,0,162,128a64.25,64.25,0,0,0-126.23,7.34,2.43,2.43,0,0,0,3.48,2.48c2.51-1.25,4.93-3.62,7.2-5.31,5.8-4.33,11.8-1,17.8,1.22s12.8,1.3,22.6-1.22,16.6-1.84,21.6,1.22,16,2.7,22-1.22,15.8-.68,17.6,0S156.8,135.2,161.4,130.2Z" transform="translate(-33.73 -59.37)"/><line class="c" x1="105.87" y1="14.3" x2="105.87" y2="14.3"/><line class="c" x1="144.17" y1="6.41" x2="144.17" y2="6.41"/><line class="c" x1="148.17" y1="6.41" x2="148.17" y2="6.41"/><line class="c" x1="109.87" y1="14.3" x2="109.87" y2="14.3"/><path class="c" d="M62.4,96.75S72.61,86.66,91.24,83.66" transform="translate(-33.73 -59.37)"/><line class="c" x1="60.96" y1="23.88" x2="60.96" y2="23.88"/><line class="c" x1="64.96" y1="23.88" x2="64.96" y2="23.88"/><circle class="d" cx="65.89" cy="94.23" r="4.26"/><circle class="d" cx="31.25" cy="93.09" r="4.26"/><path class="d" d="M83.52,161.71a12.83,12.83,0,0,1-3.2-.14,11.14,11.14,0,0,1-7.76-5.3L76,154.15a7.16,7.16,0,0,0,5,3.46,11.06,11.06,0,0,0,7.73-1.81l2.52,3.12A15.19,15.19,0,0,1,83.52,161.71Z" transform="translate(-33.73 -59.37)"/></svg>