<svg xmlns="http://www.w3.org/2000/svg" viewBox="0 0 211.2 149.08"><defs><style>.a{fill:#96c777;}.b{fill:#262730;}.c{fill:#e75b7c;}</style></defs><title>wagashi-5</title><path class="a" d="M35.75,161.82c0,49.5,42.88,57,101.2,57s110-7.47,110-57-47.27-89.61-105.6-89.61S35.75,112.33,35.75,161.82Z" transform="translate(-35.75 -69.71)"/><circle class="a" cx="83.14" cy="69.44" r="6.36"/><circle class="a" cx="36.14" cy="64.44" r="6.36"/><path class="a" d="M96.29,154.22a19.44,19.44,0,0,1-4.75-.56,16.65,16.65,0,0,1-11-8.78l5.32-2.77A10.65,10.65,0,0,0,93,147.84,16.55,16.55,0,0,0,104.7,146l3.4,4.94A22.65,22.65,0,0,1,96.29,154.22Z" transform="translate(-35.75 -69.71)"/><circle class="b" cx="83.14" cy="69.44" r="6.36"/><circle class="b" cx="36.14" cy="64.44" r="6.36"/><path class="b" d="M96.29,154.22a19.44,19.44,0,0,1-4.75-.56,16.65,16.65,0,0,1-11-8.78l5.32-2.77A10.65,10.65,0,0,0,93,147.84,16.55,16.55,0,0,0,104.7,146l3.4,4.94A22.65,22.65,0,0,1,96.29,154.22Z" transform="translate(-35.75 -69.71)"/><line class="c" x1="147.54" y1="20.64" x2="134.45" y2="23.78"/><path class="c" d="M170.2,96a2.5,2.5,0,0,1-.58-4.93l13.09-3.14a2.5,2.5,0,1,1,1.17,4.86l-13.1,3.14A2.3,2.3,0,0,1,170.2,96Z" transform="translate(-35.75 -69.71)"/><line class="c" x1="100.08" y1="18.65" x2="112.43" y2="25.78"/><path class="c" d="M148.18,98a2.49,2.49,0,0,1-1.25-.33l-12.34-7.13a2.5,2.5,0,1,1,2.5-4.33l12.34,7.13A2.5,2.5,0,0,1,148.18,98Z" transform="translate(-35.75 -69.71)"/><line class="c" x1="85.03" y1="30.96" x2="85.65" y2="18.87"/><path class="c" d="M120.79,103.16h-.13a2.5,2.5,0,0,1-2.37-2.62l.61-12.09a2.5,2.5,0,0,1,5,.25l-.62,12.09A2.49,2.49,0,0,1,120.79,103.16Z" transform="translate(-35.75 -69.71)"/><line class="c" x1="98.71" y1="7.81" x2="85.57" y2="5.93"/><path class="c" d="M134.46,80l-.35,0L121,78.11a2.5,2.5,0,0,1,.7-5L134.81,75a2.5,2.5,0,0,1-.35,5Z" transform="translate(-35.75 -69.71)"/><line class="c" x1="161.79" y1="24.16" x2="153.45" y2="13.58"/><path class="c" d="M197.55,96.36a2.53,2.53,0,0,1-2-1l-8.34-10.57a2.5,2.5,0,0,1,3.92-3.1l8.35,10.57a2.5,2.5,0,0,1-.42,3.51A2.43,2.43,0,0,1,197.55,96.36Z" transform="translate(-35.75 -69.71)"/><line class="c" x1="120.86" y1="14.23" x2="134.47" y2="9.98"/><path class="c" d="M156.61,86.43a2.5,2.5,0,0,1-.74-4.88l13.61-4.25A2.5,2.5,0,0,1,171,82.07l-13.61,4.25A2.43,2.43,0,0,1,156.61,86.43Z" transform="translate(-35.75 -69.71)"/><line class="c" x1="107.45" y1="12.1" x2="113.2" y2="17.44"/><path class="c" d="M149,89.65a2.47,2.47,0,0,1-1.7-.67l-5.75-5.34A2.5,2.5,0,1,1,144.9,80l5.75,5.34a2.5,2.5,0,0,1-1.7,4.33Z" transform="translate(-35.75 -69.71)"/><line class="c" x1="162.51" y1="35.36" x2="148.61" y2="32.2"/><path class="c" d="M198.27,107.56a2.57,2.57,0,0,1-.55-.06l-13.91-3.16a2.5,2.5,0,1,1,1.11-4.87l13.9,3.16a2.49,2.49,0,0,1-.55,4.93Z" transform="translate(-35.75 -69.71)"/><line class="c" x1="75.04" y1="16.18" x2="77.69" y2="5.66"/><path class="c" d="M110.8,88.38a2.13,2.13,0,0,1-.61-.08,2.5,2.5,0,0,1-1.82-3L111,74.76A2.5,2.5,0,0,1,115.87,76l-2.65,10.51A2.49,2.49,0,0,1,110.8,88.38Z" transform="translate(-35.75 -69.71)"/><line class="c" x1="59.68" y1="26.58" x2="73.83" y2="24.83"/><path class="c" d="M95.43,98.78a2.5,2.5,0,0,1-.3-5l14.15-1.74a2.5,2.5,0,1,1,.61,5L95.74,98.76A1.62,1.62,0,0,1,95.43,98.78Z" transform="translate(-35.75 -69.71)"/><line class="c" x1="54.79" y1="15.51" x2="43.17" y2="21.92"/><path class="c" d="M78.93,94.13a2.5,2.5,0,0,1-1.21-4.69L89.34,83a2.5,2.5,0,0,1,2.41,4.37L80.14,93.82A2.53,2.53,0,0,1,78.93,94.13Z" transform="translate(-35.75 -69.71)"/><line class="c" x1="61.48" y1="12.15" x2="69.42" y2="17.72"/><path class="c" d="M105.18,89.93a2.49,2.49,0,0,1-1.44-.46L95.8,83.91a2.5,2.5,0,0,1,2.87-4.1l7.94,5.57a2.5,2.5,0,0,1-1.43,4.55Z" transform="translate(-35.75 -69.71)"/><line class="c" x1="123.05" y1="2.5" x2="108.42" y2="6.45"/><path class="c" d="M144.17,78.65a2.5,2.5,0,0,1-.65-4.91l14.63-3.95a2.5,2.5,0,0,1,1.3,4.83l-14.63,3.95A2.36,2.36,0,0,1,144.17,78.65Z" transform="translate(-35.75 -69.71)"/><line class="c" x1="126.78" y1="33.69" x2="124.19" y2="25.71"/><path class="c" d="M162.53,105.9a2.49,2.49,0,0,1-2.37-1.73l-2.59-8a2.5,2.5,0,1,1,4.75-1.54l2.59,8a2.5,2.5,0,0,1-1.6,3.15A2.64,2.64,0,0,1,162.53,105.9Z" transform="translate(-35.75 -69.71)"/><line class="c" x1="176.25" y1="28.64" x2="173.25" y2="36.49"/><path class="c" d="M209,108.69a2.58,2.58,0,0,1-.89-.16,2.51,2.51,0,0,1-1.44-3.23l3-7.84a2.5,2.5,0,1,1,4.67,1.78l-3,7.84A2.5,2.5,0,0,1,209,108.69Z" transform="translate(-35.75 -69.71)"/></svg>