<svg xmlns="http://www.w3.org/2000/svg" viewBox="0 0 224.44 184.11"><defs><style>.a{fill:#e75b7c;}.b{fill:#d78772;}.c{fill:#d9be8f;}.d{fill:#f4dfb5;}.e{fill:#cf836b;}.f{fill:#c17b68;}.g{fill:#262730;}</style></defs><title>wagashi-11</title><polygon class="a" points="224.44 126.32 127.89 111.24 127.89 0 224.44 15.08 224.44 126.32"/><polygon class="b" points="224.44 15.08 127.89 0 0 48.35 96.56 63.43 224.44 15.08"/><polygon class="c" points="224.44 126.32 224.44 15.08 96.56 63.43 96.56 174.67 224.44 126.32"/><polygon class="d" points="96.56 174.67 0 159.59 0 48.35 96.56 63.43 96.56 174.67"/><polygon class="e" points="96.56 75.2 0 60.12 0 48.35 96.56 63.43 96.56 75.2"/><polygon class="f" points="224.44 26.86 96.56 75.2 96.56 63.43 224.44 15.08 224.44 26.86"/><polygon class="e" points="96.56 184.11 0 169.03 0 157.25 96.56 172.33 96.56 184.11"/><polygon class="f" points="224.44 135.76 96.56 184.11 96.56 172.33 224.44 123.99 224.44 135.76"/><circle class="g" cx="67.38" cy="133.91" r="5.71"/><circle class="g" cx="21.17" cy="129.21" r="5.71"/><path class="g" d="M74.62,192.22a17.89,17.89,0,0,1-4.26-.47,15,15,0,0,1-9.9-7.8l4.75-2.53a9.61,9.61,0,0,0,6.4,5.09,14.82,14.82,0,0,0,10.5-1.72l3.09,4.41A20.28,20.28,0,0,1,74.62,192.22Z" transform="translate(-29.51 -48.96)"/></svg>