<svg xmlns="http://www.w3.org/2000/svg" viewBox="0 0 211.2 149.08"><defs><style>.a{fill:#e75b7c;}.b{fill:#262730;}.c{fill:none;stroke:#fde5d5;stroke-linecap:round;stroke-miterlimit:10;stroke-width:5px;}</style></defs><title>wagashi-3</title><path class="a" d="M35.75,161.82c0,49.5,42.88,57,101.2,57s110-7.47,110-57-47.27-89.61-105.6-89.61S35.75,112.33,35.75,161.82Z" transform="translate(-35.75 -69.71)"/><circle class="b" cx="83.14" cy="69.43" r="6.36"/><circle class="b" cx="36.14" cy="64.43" r="6.36"/><path class="b" d="M96.29,154.22a19.44,19.44,0,0,1-4.75-.56,16.65,16.65,0,0,1-11-8.78l5.32-2.77A10.65,10.65,0,0,0,93,147.84,16.55,16.55,0,0,0,104.7,146l3.4,4.94A22.65,22.65,0,0,1,96.29,154.22Z" transform="translate(-35.75 -69.71)"/><line class="c" x1="147.54" y1="20.64" x2="134.45" y2="23.78"/><line class="c" x1="100.08" y1="18.65" x2="112.43" y2="25.78"/><line class="c" x1="85.03" y1="30.96" x2="85.65" y2="18.87"/><line class="c" x1="98.71" y1="7.81" x2="85.57" y2="5.93"/><line class="c" x1="161.79" y1="24.15" x2="153.45" y2="13.58"/><line class="c" x1="120.86" y1="14.23" x2="134.47" y2="9.98"/><line class="c" x1="107.45" y1="12.1" x2="113.2" y2="17.44"/><line class="c" x1="162.51" y1="35.36" x2="148.61" y2="32.2"/><line class="c" x1="75.04" y1="16.17" x2="77.69" y2="5.66"/><line class="c" x1="59.68" y1="26.58" x2="73.83" y2="24.83"/><line class="c" x1="54.79" y1="15.51" x2="43.17" y2="21.92"/><line class="c" x1="61.48" y1="12.15" x2="69.42" y2="17.72"/><line class="c" x1="123.05" y1="2.5" x2="108.42" y2="6.45"/><line class="c" x1="126.78" y1="33.69" x2="124.19" y2="25.7"/><line class="c" x1="176.25" y1="28.64" x2="173.25" y2="36.48"/></svg>