<svg xmlns="http://www.w3.org/2000/svg" viewBox="0 0 229.2 146.53"><defs><style>.a{fill:#fde5d5;stroke:#eed0c0;stroke-miterlimit:10;stroke-width:3px;}.b{fill:#96c777;}.c{fill:#e75b7c;}.d{fill:#262730;}</style></defs><title>wagashi-7</title><line class="a" x1="200.54" y1="52.39" x2="220.7" y2="47.76"/><path class="a" d="M235,120.23a7,7,0,0,1-.77-13.78l20.16-4.64a7,7,0,1,1,3.14,13.64l-20.16,4.64A7.07,7.07,0,0,1,235,120.23Z" transform="translate(-35.23 -60.87)"/><circle class="b" cx="148.74" cy="64.26" r="64.26"/><circle class="a" cx="111.25" cy="71.65" r="64.26"/><circle class="c" cx="64.26" cy="82.27" r="64.26"/><circle class="d" cx="65.8" cy="61.22" r="4.26"/><circle class="d" cx="31.17" cy="62.58" r="4.26"/><path class="d" d="M85.55,131.33a12.62,12.62,0,0,1-3.2.1,11.16,11.16,0,0,1-8.13-4.72l3.25-2.37a7.15,7.15,0,0,0,5.26,3.09,11,11,0,0,0,7.58-2.36L93.05,128A15,15,0,0,1,85.55,131.33Z" transform="translate(-35.23 -60.87)"/></svg>