<svg xmlns="http://www.w3.org/2000/svg" viewBox="0 0 162 179.2"><defs><style>.a{fill:#f4dfb5;}.b{fill:#cf836b;}.c{fill:#262730;}</style></defs><title>wagashi-12</title><path class="a" d="M73.8,137.2c0,45,17.44,88.2,62.4,88.2s80-43.25,80-88.2-21.91-91-66.87-91S73.8,92.24,73.8,137.2Z" transform="translate(-66.2 -46.2)"/><path class="b" d="M66.2,137.2c0,45,17.44,88.2,62.4,88.2s80-43.25,80-88.2-21.91-91-66.87-91S66.2,92.24,66.2,137.2Z" transform="translate(-66.2 -46.2)"/><path class="a" d="M85.8,137.2c0,45,17.44,88.2,62.4,88.2s80-43.25,80-88.2-21.91-91-66.87-91S85.8,92.24,85.8,137.2Z" transform="translate(-66.2 -46.2)"/><path class="c" d="M78.8,137.2c0,45,18,84.6,62.93,84.6s79.47-39.65,79.47-84.6-26.91-91-71.87-91S78.8,92.24,78.8,137.2Z" transform="translate(-66.2 -46.2)"/><path class="a" d="M73.8,137.2c0,45,17.44,88.2,62.4,88.2s80-43.25,80-88.2-21.91-91-66.87-91S73.8,92.24,73.8,137.2Z" transform="translate(-66.2 -46.2)"/><path class="b" d="M66.2,137.2c0,45,17.44,88.2,62.4,88.2s80-43.25,80-88.2-21.91-91-66.87-91S66.2,92.24,66.2,137.2Z" transform="translate(-66.2 -46.2)"/><circle class="c" cx="76.53" cy="115" r="5.71"/><circle class="c" cx="31.61" cy="103.17" r="5.71"/><path class="c" d="M119.28,167a18,18,0,0,1-4.14-1.13,15,15,0,0,1-8.57-9.24l5.09-1.76a9.56,9.56,0,0,0,5.53,6,14.81,14.81,0,0,0,10.64-.06l2.36,4.84A20.3,20.3,0,0,1,119.28,167Z" transform="translate(-66.2 -46.2)"/></svg>