<svg xmlns="http://www.w3.org/2000/svg" viewBox="0 0 217.2 156.32"><defs><style>.a{fill:#f4d3bd;stroke:#e5bb9e;stroke-miterlimit:10;stroke-width:6px;}.b{fill:#262730;}.c{fill:#e75b7c;}</style></defs><title>wagashi-6</title><path class="a" d="M35.75,161.82c0,49.5,42.88,57,101.2,57s110-7.47,110-57-47.27-89.61-105.6-89.61S35.75,112.33,35.75,161.82Z" transform="translate(-32.75 -65.46)"/><circle class="b" cx="86.14" cy="73.68" r="6.36"/><circle class="b" cx="39.14" cy="68.68" r="6.36"/><path class="b" d="M96.29,154.22a19.44,19.44,0,0,1-4.75-.56,16.65,16.65,0,0,1-11-8.78l5.32-2.77A10.65,10.65,0,0,0,93,147.84,16.55,16.55,0,0,0,104.7,146l3.4,4.94A22.65,22.65,0,0,1,96.29,154.22Z" transform="translate(-32.75 -65.46)"/><ellipse class="c" cx="164.92" cy="79.74" rx="7.35" ry="21.24" transform="matrix(0.25, -0.97, 0.97, 0.25, 13.08, 153.46)"/><ellipse class="c" cx="129.23" cy="80.52" rx="18.62" ry="7.35" transform="translate(-53.86 -9.09) rotate(-22.8)"/><ellipse class="c" cx="129.23" cy="72.21" rx="6.64" ry="18.64" transform="translate(15.74 130.83) rotate(-86.14)"/></svg>