<svg xmlns="http://www.w3.org/2000/svg" viewBox="0 0 163.87 170.7"><defs><style>.cls-1{fill:#262730;}</style></defs><title>Fichier 8</title><g id="Calque_2" data-name="Calque 2"><g id="Calque_3" data-name="Calque 3"><path class="cls-1" d="M154.91,26.43c.06-.46.13-.92.19-1.38a22.2,22.2,0,0,0-22-25h-100a22.18,22.18,0,0,0-22,24.11C4.06,31.26,0,39.57,0,48.45,0,63.9,12.24,77.65,31.29,86.52c11,18.11,25.32,30.52,41.35,34.34v14.2H41.86a9.76,9.76,0,0,0-9.74,9.74V161a9.76,9.76,0,0,0,9.74,9.74h82.57a9.76,9.76,0,0,0,9.74-9.74V144.8a9.76,9.76,0,0,0-9.74-9.74H93.64v-14.2c16.54-3.93,31.29-17,42.36-36C153.08,76,163.87,63,163.87,48.45,163.87,40.52,160.63,33,154.91,26.43ZM107.84,53.28,101,59.93a5.55,5.55,0,0,0-1.6,4.92L101,74.24A5.57,5.57,0,0,1,93,80.1l-8.43-4.43a5.58,5.58,0,0,0-5.18,0L70.92,80.1a5.57,5.57,0,0,1-8.08-5.86l1.61-9.39a5.55,5.55,0,0,0-1.6-4.92L56,53.28a5.56,5.56,0,0,1,3.09-9.49l9.42-1.37a5.55,5.55,0,0,0,4.19-3.05l4.21-8.53a5.57,5.57,0,0,1,10,0l4.21,8.53a5.55,5.55,0,0,0,4.19,3.05l9.42,1.37A5.56,5.56,0,0,1,107.84,53.28Z"/></g></g></svg>